<svg width="2901" height="1031" xmlns="http://www.w3.org/2000/svg" xmlns:xlink="http://www.w3.org/1999/xlink" xml:space="preserve" overflow="hidden"><defs><clipPath id="clip0"><rect x="727" y="718" width="2901" height="1031"/></clipPath></defs><g clip-path="url(#clip0)" transform="translate(-727 -718)"><path d="M2695.21 956.36 2716.17 961.872C2726.56 965.07 2737.23 968.8 2748.17 973.064L2748.17 1130.62C2735.79 1115.45 2723.16 1104 2710.29 1096.29 2686.77 1082.1 2661.51 1075.01 2634.52 1075.01 2600.35 1075.01 2570.64 1085.3 2545.39 1105.87 2513.45 1131.89 2497.47 1167.57 2497.47 1212.93 2497.47 1258.03 2513.45 1293.6 2545.39 1319.62 2570.64 1340.18 2600.35 1350.47 2634.52 1350.47 2661.51 1350.47 2686.77 1343.38 2710.29 1329.2 2722.92 1321.73 2735.55 1310.29 2748.17 1294.86L2748.17 1452.42C2705.16 1469.47 2665.35 1478 2628.76 1478 2564.97 1478 2507.86 1457.61 2457.42 1416.83 2393.14 1364.68 2361 1296.71 2361 1212.93 2361 1170.91 2369.03 1132.88 2385.11 1098.83L2388.46 1093.49 2394.17 1092.77C2420.91 1085.89 2443.78 1069.35 2458.82 1047.09L2461.23 1042.66 2469.41 1047.1C2490.08 1055.84 2512.81 1060.67 2536.66 1060.67 2596.29 1060.67 2648.87 1030.47 2679.92 984.531ZM3076.64 947.483C3111.75 947.483 3151.19 956.01 3194.95 973.064L3194.95 1130.62C3182.57 1115.45 3169.94 1104 3157.06 1096.29 3133.54 1082.1 3108.29 1075.01 3081.3 1075.01 3047.13 1075.01 3017.42 1085.3 2992.16 1105.87 2960.22 1131.89 2944.25 1167.57 2944.25 1212.93 2944.25 1258.03 2960.22 1293.6 2992.16 1319.62 3017.42 1340.18 3047.13 1350.47 3081.3 1350.47 3108.29 1350.47 3133.54 1343.38 3157.06 1329.2 3169.69 1321.73 3182.32 1310.29 3194.95 1294.86L3194.95 1452.42C3151.93 1469.47 3112.12 1478 3075.53 1478 3011.74 1478 2954.63 1457.61 2904.2 1416.83 2839.91 1364.68 2807.77 1296.71 2807.77 1212.93 2807.77 1128.89 2839.91 1060.8 2904.2 1008.65 2954.63 967.873 3012.12 947.483 3076.64 947.483ZM3447.02 946C3501.66 946 3555.19 959.717 3607.6 987.151L3554.94 1089.47C3526.19 1066.98 3497.19 1055.74 3467.93 1055.74 3453.81 1055.74 3441.17 1059.33 3430.01 1066.53 3417.37 1074.72 3411.05 1085.63 3411.05 1099.27 3411.05 1112.67 3419.34 1124.2 3435.94 1133.87 3443.37 1138.34 3465.66 1146.03 3502.81 1156.95 3549.37 1170.56 3582.55 1189.86 3602.36 1214.85 3619.45 1236.13 3628 1263.47 3628 1296.87 3628 1382.49 3590.42 1438.28 3515.26 1464.27 3489.05 1473.42 3460.87 1478 3430.7 1478 3367.41 1478 3308.69 1458.85 3254.55 1420.54L3310.92 1314.51C3350.56 1350.34 3389.33 1368.26 3427.23 1368.26 3444.33 1368.26 3458.82 1364.27 3470.72 1356.28 3484.59 1347.29 3491.52 1334.56 3491.52 1318.08 3491.52 1303.1 3483.85 1290.62 3468.49 1280.63 3457.1 1273.14 3437.91 1265.52 3410.91 1257.79 3378.22 1248.16 3357.66 1241.49 3349.24 1237.79 3335.87 1232.11 3324.48 1225.45 3315.07 1217.79 3288.07 1195.58 3274.57 1162 3274.57 1117.08 3274.57 1070.17 3288.54 1031.29 3316.48 1000.43 3349.12 964.144 3392.63 946 3447.02 946Z" fill="#468189" fill-rule="evenodd"/><path d="M1421.59 1210.12C1396.48 1210.12 1376.06 1219.56 1360.3 1238.45 1347.5 1253.6 1341.1 1270.87 1341.1 1290.25 1341.1 1309.88 1347.5 1327.27 1360.3 1342.42 1376.06 1361.31 1396.48 1370.75 1421.59 1370.75 1443.99 1370.75 1462.94 1362.99 1478.45 1347.46 1493.95 1331.93 1501.71 1312.86 1501.71 1290.25 1501.71 1267.89 1493.89 1248.94 1478.26 1233.41 1462.63 1217.88 1443.74 1210.12 1421.59 1210.12ZM1890.27 1208.64C1865.9 1208.64 1845.97 1218.03 1830.46 1236.83 1818.16 1251.92 1812 1269.35 1812 1289.14 1812 1311.15 1819.57 1330.01 1834.71 1345.71 1849.84 1361.42 1868.36 1369.27 1890.27 1369.27 1911.92 1369.27 1930.32 1361.42 1945.45 1345.71 1960.59 1330.01 1968.16 1311.15 1968.16 1289.14 1968.16 1267.13 1960.65 1248.21 1945.64 1232.38 1930.63 1216.55 1912.17 1208.64 1890.27 1208.64ZM2165.97 1118.12 2288 1118.12 2288 1462.38 2165.97 1462.38ZM1859.25 1108.47C1884.19 1108.47 1906.41 1113.54 1925.92 1123.68 1937.53 1129.86 1949.63 1140 1962.22 1154.1L1962.22 1118.12 2084.25 1118.12 2084.25 1438.64C2084.25 1468.81 2082.15 1493.17 2077.95 1511.72 2071.27 1541.4 2053.96 1567.99 2026.02 1591.48 1990.66 1621.16 1943.68 1636 1885.07 1636 1823.75 1636 1774.91 1619.8 1738.56 1587.4 1714.33 1565.89 1698.88 1543.38 1692.2 1519.88 1691.46 1517.41 1690.47 1512.22 1689.23 1504.3L1825.73 1504.3C1829.68 1515.56 1835 1523.64 1841.68 1528.54 1852.56 1536.62 1866.41 1540.66 1883.22 1540.66 1911.41 1540.66 1933.05 1530.67 1948.13 1510.7 1957.53 1498.13 1962.22 1480.14 1962.22 1456.71L1962.22 1424.17C1947.65 1437.53 1935.43 1446.93 1925.55 1452.37 1905.06 1463.74 1880.86 1469.43 1852.95 1469.43 1817.88 1469.43 1786.52 1460.4 1758.87 1442.35 1730.47 1423.8 1710.09 1398.45 1697.75 1366.3 1689.35 1344.54 1685.15 1320.92 1685.15 1295.44 1685.15 1239.06 1703.06 1193.18 1738.86 1157.81 1772.2 1124.92 1812.33 1108.47 1859.25 1108.47ZM1425.3 1105.5C1490.33 1105.5 1542.26 1126.4 1581.08 1168.2 1612.73 1202.33 1628.56 1243.01 1628.56 1290.25 1628.56 1337.98 1612.86 1378.91 1581.45 1413.04 1543.37 1454.59 1490.09 1475.37 1421.59 1475.37 1352.85 1475.37 1299.44 1454.59 1261.36 1413.04 1229.95 1378.91 1214.25 1336.99 1214.25 1287.28 1214.25 1242.52 1230.08 1202.82 1261.73 1168.2 1300.06 1126.4 1354.58 1105.5 1425.3 1105.5ZM882 956 1013.67 956 1013.67 1352.57 1171.68 1352.57 1171.68 1462.38 882 1462.38Z" fill-rule="evenodd"/><path d="M2347 1624.5 2229 1737 2111 1624.5 2170 1624.5 2170 1512 2288 1512 2288 1624.5Z" fill="#D9D9D9" fill-rule="evenodd"/><path d="M728.109 1664.54C735.704 1657.18 783.488 1670.74 813.457 1660.21 843.425 1649.67 883.75 1616.75 907.92 1601.32 932.09 1585.89 932.766 1581.01 958.474 1567.63 984.182 1554.24 1016.47 1551.68 1042.99 1551.09 1069.5 1550.5 1088.42 1552.68 1117.56 1564.08 1146.7 1575.48 1194.07 1606.51 1217.83 1619.5 1241.58 1632.49 1243.51 1637.11 1260.09 1642.02 1276.66 1646.93 1297.1 1650.39 1317.26 1648.95 1337.42 1647.5 1352.48 1645.92 1381.06 1633.36 1409.65 1620.8 1454.95 1586.31 1488.79 1573.6 1522.62 1560.9 1554.66 1551.95 1584.08 1557.15 1613.49 1562.35 1659.34 1597.13 1665.28 1604.78 1671.22 1612.43 1638.9 1599.3 1619.71 1603.05 1600.51 1606.8 1572.89 1615.32 1550.1 1627.3 1527.32 1639.28 1482.99 1674.93 1482.99 1674.93 1461.72 1690.08 1443.9 1706.39 1422.5 1718.23 1401.09 1730.07 1379.96 1741.61 1354.55 1745.94 1329.14 1750.27 1297.93 1750.27 1270.03 1744.21 1242.13 1738.15 1213.41 1723.14 1187.17 1709.57 1160.93 1696 1134.55 1672.33 1112.59 1662.8 1090.63 1653.28 1072.4 1653.42 1055.41 1652.41 1038.43 1651.4 1027.66 1651.83 1010.67 1656.74 993.683 1661.65 974.624 1672.04 953.494 1681.86 932.364 1691.67 906.539 1709.14 883.89 1715.63 861.241 1722.13 836.934 1722.7 817.6 1720.83 798.265 1718.95 781.831 1713.18 767.882 1704.37 753.934 1695.57 720.513 1671.9 728.109 1664.54Z" fill="#468189" fill-rule="evenodd"/><path d="M2368 876C2368 788.739 2439.19 718 2527 718 2614.81 718 2686 788.739 2686 876 2686 963.261 2614.81 1034 2527 1034 2439.19 1034 2368 963.261 2368 876Z" fill="#D9D9D9" fill-rule="evenodd"/><path d="M2262 963.5C2262 904.682 2306.32 857 2361 857 2415.68 857 2460 904.682 2460 963.5 2460 1022.32 2415.68 1070 2361 1070 2306.32 1070 2262 1022.32 2262 963.5Z" fill="#D9D9D9" fill-rule="evenodd"/><path d="M2221.74 928.73C2278.18 878.488 2347.58 864.31 2376.73 897.063 2405.88 929.816 2383.76 997.097 2327.31 1047.34 2270.87 1097.58 2201.47 1111.76 2172.32 1079.01 2143.17 1046.25 2165.29 978.972 2221.74 928.73Z" fill="#D9D9D9" fill-rule="evenodd"/></g></svg>