<svg width="105" height="88" xmlns="http://www.w3.org/2000/svg" xmlns:xlink="http://www.w3.org/1999/xlink" xml:space="preserve" overflow="hidden"><g transform="translate(-338 -223)"><path d="M244.255 270.446C244.255 269.398 244.845 268.549 245.572 268.549L346.869 268.549C347.596 268.549 348.186 269.398 348.186 270.446L348.186 270.446C348.186 271.493 347.596 272.343 346.869 272.343L245.572 272.343C244.845 272.343 244.255 271.493 244.255 270.446Z" fill="#2C3E50" fill-rule="evenodd" transform="matrix(1.00296 0 0 1 93.7609 38.6552)"/><path d="M245.773 267.033 245.773 242.272 291.29 230.619 291.29 267.033 245.773 267.033Z" fill="#2C3E50" fill-rule="evenodd" transform="matrix(1.00296 0 0 1 93.7609 38.6552)"/><path d="M292.069 255.655 310.276 255.655 310.276 267.034 292.069 267.034Z" fill="#2C3E50" transform="matrix(1.00296 0 0 1 93.7609 38.6552)"/><path d="M260.186 240.481 261.219 211.654 269.774 211.654 270.806 239.163 260.186 240.481Z" fill="#2C3E50" fill-rule="evenodd" transform="matrix(1.00296 0 0 1 93.7609 38.6552)"/><path d="M271.565 237.447 272.45 211.654 281.153 211.654 282.186 236.188 271.565 237.447Z" fill="#2C3E50" fill-rule="evenodd" transform="matrix(1.00296 0 0 1 93.7609 38.6552)"/><path d="M260.207 217.724 270.828 217.724 270.828 219.241 260.207 219.241Z" fill="#FFFFFF" transform="matrix(1.00296 0 0 1 93.7609 38.6552)"/><path d="M271.586 217.724 282.207 217.724 282.207 219.241 271.586 219.241Z" fill="#FFFFFF" transform="matrix(1.00296 0 0 1 93.7609 38.6552)"/><path d="M252.621 253.379 260.207 253.379 260.207 258.69 252.621 258.69Z" fill="#FFFFFF" transform="matrix(1.00296 0 0 1 93.7609 38.6552)"/><path d="M264 253.379 272.345 253.379 272.345 258.69 264 258.69Z" fill="#FFFFFF" transform="matrix(1.00296 0 0 1 93.7609 38.6552)"/><path d="M276.138 253.379 283.724 253.379 283.724 258.69 276.138 258.69Z" fill="#FFFFFF" transform="matrix(1.00296 0 0 1 93.7609 38.6552)"/><path d="M260.945 203.688C260.945 200.965 263.153 198.757 265.876 198.757 268.6 198.757 270.807 200.965 270.807 203.688 270.807 206.412 268.6 208.619 265.876 208.619 263.153 208.619 260.945 206.412 260.945 203.688Z" fill="#D9D9D9" fill-rule="evenodd" transform="matrix(1.00296 0 0 1 93.7609 38.6552)"/><path d="M265.498 199.895C265.498 195.496 268.894 191.93 273.084 191.93 277.273 191.93 280.67 195.496 280.67 199.895 280.67 204.294 277.273 207.861 273.084 207.861 268.894 207.861 265.498 204.294 265.498 199.895Z" fill="#D9D9D9" fill-rule="evenodd" transform="matrix(1.00296 0 0 1 93.7609 38.6552)"/><path d="M276.117 196.481C276.117 190.196 281.212 185.102 287.497 185.102 293.781 185.102 298.876 190.196 298.876 196.481 298.876 202.766 293.781 207.861 287.497 207.861 281.212 207.861 276.117 202.766 276.117 196.481Z" fill="#D9D9D9" fill-rule="evenodd" transform="matrix(1.00296 0 0 1 93.7609 38.6552)"/><path d="M285.979 212.412 325.026 212.412C328.173 212.412 330.738 215.605 330.738 219.524L330.738 229.102 326.775 229.102 326.775 219.524C326.775 218.362 325.959 217.346 325.026 217.346L285.979 217.346 285.979 212.412Z" fill="#468189" fill-rule="evenodd" transform="matrix(1.00296 0 0 1 93.7609 38.6552)"/><path d="M322.393 229.102 336.048 229.102 329.221 238.964 322.393 229.102Z" fill="#468189" fill-rule="evenodd" transform="matrix(1.00296 0 0 1 93.7609 38.6552)"/><path d="M311.773 246.93C311.773 244.625 319.754 242.757 329.6 242.757 339.446 242.757 347.428 244.625 347.428 246.93 347.428 249.233 339.446 251.102 329.6 251.102 319.754 251.102 311.773 249.233 311.773 246.93Z" fill="#2C3E50" fill-rule="evenodd" transform="matrix(1.00296 0 0 1 93.7609 38.6552)"/><path d="M311.793 247.31 347.448 247.31 347.448 267.034 311.793 267.034Z" fill="#2C3E50" transform="matrix(1.00296 0 0 1 93.7609 38.6552)"/><path d="M311.793 249.586 347.448 249.586 347.448 251.103 311.793 251.103Z" fill="#FFFFFF" transform="matrix(1.00296 0 0 1 93.7609 38.6552)"/><path d="M324.69 239.724 333.793 239.724 333.793 243.517 324.69 243.517Z" fill="#2C3E50" transform="matrix(1.00296 0 0 1 93.7609 38.6552)"/></g></svg>