<svg width="111" height="76" xmlns="http://www.w3.org/2000/svg" xmlns:xlink="http://www.w3.org/1999/xlink" xml:space="preserve" overflow="hidden"><g transform="translate(-163 -508)"><path d="M174.564 456.723C174.564 455.477 175.183 454.466 175.948 454.466L282.29 454.466C283.053 454.466 283.673 455.477 283.673 456.723L283.673 456.723C283.673 457.97 283.053 458.981 282.29 458.981L175.948 458.981C175.183 458.981 174.564 457.97 174.564 456.723Z" fill="#2C3E50" fill-rule="evenodd" transform="matrix(1.01036 0 0 1 -12.6233 124.99)"/><path d="M205.426 419.881 253.584 419.881 253.584 453.743 205.426 453.743Z" fill="#2C3E50" transform="matrix(1.01036 0 0 1 -12.6233 124.99)"/><path d="M200.911 416.119 229.129 395.802 257.347 416.119Z" fill="#2C3E50" fill-rule="evenodd" transform="matrix(1.01036 0 0 1 -12.6233 124.99)"/><path d="M225.743 424.396 233.267 424.396 233.267 449.228 225.743 449.228Z" fill="#FFFFFF" transform="matrix(1.01036 0 0 1 -12.6233 124.99)"/><path d="M212.198 424.396 220.475 424.396 220.475 449.228 212.198 449.228Z" fill="#FFFFFF" transform="matrix(1.01036 0 0 1 -12.6233 124.99)"/><path d="M238.535 424.396 246.059 424.396 246.059 449.228 238.535 449.228Z" fill="#FFFFFF" transform="matrix(1.01036 0 0 1 -12.6233 124.99)"/><path d="M201.663 416.119 257.347 416.119 257.347 420.634 201.663 420.634Z" fill="#2C3E50" transform="matrix(1.01036 0 0 1 -12.6233 124.99)"/><path d="M177.584 427.406 202.416 427.406 202.416 453.743 177.584 453.743Z" fill="#2C3E50" transform="matrix(1.01036 0 0 1 -12.6233 124.99)"/><path d="M185.861 433.426 194.139 433.426 194.139 441.703 185.861 441.703Z" fill="#FFFFFF" transform="matrix(1.01036 0 0 1 -12.6233 124.99)"/><path d="M256.594 427.406 280.673 427.406 280.673 453.743 256.594 453.743Z" fill="#2C3E50" transform="matrix(1.01036 0 0 1 -12.6233 124.99)"/><path d="M264.871 433.426 272.396 433.426 272.396 441.703 264.871 441.703Z" fill="#FFFFFF" transform="matrix(1.01036 0 0 1 -12.6233 124.99)"/><path d="M229.505 383.762 236.277 383.762 236.277 392.04 229.505 392.04Z" fill="#468189" transform="matrix(1.01036 0 0 1 -12.6233 124.99)"/><path d="M0 6.0198 0 0 7.52475 6.0198Z" fill="#468189" fill-rule="evenodd" transform="matrix(1.01036 0 0 -1 223.822 514.772)"/><path d="M234.02 392.04 234.02 385.267 241.545 392.04Z" fill="#468189" fill-rule="evenodd" transform="matrix(1.01036 0 0 1 -12.6233 124.99)"/><path d="M229.505 383.01 229.505 397.23" stroke="#2C3E50" stroke-width="1.50495" stroke-linejoin="round" stroke-miterlimit="10" fill="none" fill-rule="evenodd" transform="matrix(1.01036 0 0 1 -12.6233 124.99)"/></g></svg>