<svg width="124" height="38" xmlns="http://www.w3.org/2000/svg" xmlns:xlink="http://www.w3.org/1999/xlink" xml:space="preserve" overflow="hidden"><g transform="translate(-851 -273)"><path d="M559.3 254.362 563.691 234.056 573.74 234.056 573.74 255.336 559.3 254.362Z" fill="#2C3E50" fill-rule="evenodd" transform="matrix(1.00097 0 0 1 312.399 39.68)"/><path d="M593.5 255.716C593.5 250.469 598.093 246.216 603.76 246.216 609.427 246.216 614.02 250.469 614.02 255.716 614.02 260.963 609.427 265.216 603.76 265.216 598.093 265.216 593.5 260.963 593.5 255.716Z" fill="#D9D9D9" fill-rule="evenodd" transform="matrix(1.00097 0 0 1 312.399 39.68)"/><path d="M573.74 255.716C573.74 250.469 578.163 246.216 583.62 246.216 589.077 246.216 593.5 250.469 593.5 255.716 593.5 260.963 589.077 265.216 583.62 265.216 578.163 265.216 573.74 260.963 573.74 255.716Z" fill="#D9D9D9" fill-rule="evenodd" transform="matrix(1.00097 0 0 1 312.399 39.68)"/><path d="M614.02 255.716C614.02 250.469 618.613 246.216 624.28 246.216 629.947 246.216 634.54 250.469 634.54 255.716 634.54 260.963 629.947 265.216 624.28 265.216 618.613 265.216 614.02 260.963 614.02 255.716Z" fill="#D9D9D9" fill-rule="evenodd" transform="matrix(1.00097 0 0 1 312.399 39.68)"/><path d="M548.72 253.84 655.12 253.84 655.12 259.16 548.72 259.16Z" fill="#2C3E50" transform="matrix(1.00097 0 0 1 312.399 39.68)"/><path d="M632.26 259.048 635.523 250.016 661.9 250.19 658.492 259.896 632.26 259.048Z" fill="#2C3E50" fill-rule="evenodd" transform="matrix(1.00097 0 0 1 312.399 39.68)"/><path d="M552.46 255.157 555.002 235.576 560.82 235.576 560.82 256.096 552.46 255.157Z" fill="#2C3E50" fill-rule="evenodd" transform="matrix(1.00097 0 0 1 312.399 39.68)"/><path d="M548.66 258.376 658.86 258.672C658.29 260.853 657.172 263.035 656.601 265.216L557.595 265.037C554.613 262.817 551.642 260.596 548.66 258.376Z" fill="#2C3E50" fill-rule="evenodd" transform="matrix(1.00097 0 0 1 312.399 39.68)"/><path d="M538.78 265.976C543.688 268.636 548.596 268.636 553.505 265.976 558.413 268.636 563.321 268.636 568.23 265.976 573.138 268.636 578.046 268.636 582.955 265.976 587.863 268.636 592.771 268.636 597.68 265.976 602.588 268.636 607.496 268.636 612.405 265.976 617.313 268.636 622.221 268.636 627.13 265.976 632.038 268.636 636.946 268.636 641.855 265.976 646.763 268.636 651.671 268.636 656.58 265.976L656.58 269.301C651.671 271.961 646.763 271.961 641.855 269.301 636.946 271.961 632.038 271.961 627.13 269.301 622.221 271.961 617.313 271.961 612.405 269.301 607.496 271.961 602.588 271.961 597.68 269.301 592.771 271.961 587.863 271.961 582.955 269.301 578.046 271.961 573.138 271.961 568.23 269.301 563.321 271.961 558.413 271.961 553.505 269.301 548.596 271.961 543.688 271.961 538.78 269.301Z" fill="#468189" fill-rule="evenodd" transform="matrix(1.00097 0 0 1 312.399 39.68)"/></g></svg>