<svg width="140" height="131" xmlns="http://www.w3.org/2000/svg" xmlns:xlink="http://www.w3.org/1999/xlink" xml:space="preserve" overflow="hidden"><defs><clipPath id="clip0"><path d="M957.219 345.232 946.285 400.468 884.173 388.29 895.107 333.054Z" fill-rule="evenodd" clip-rule="evenodd"/></clipPath><clipPath id="clip1"><path d="M957.219 345.232 946.285 400.468 884.173 388.29 895.107 333.054Z" fill-rule="evenodd" clip-rule="evenodd"/></clipPath><clipPath id="clip2"><path d="M957.219 345.232 946.285 400.468 884.173 388.29 895.107 333.054Z" fill-rule="evenodd" clip-rule="evenodd"/></clipPath><clipPath id="clip3"><path d="M975.713 450.365 920.128 420.213 947.2 370.781 1002.79 400.933Z" fill-rule="evenodd" clip-rule="evenodd"/></clipPath><clipPath id="clip4"><path d="M975.713 450.365 920.128 420.213 947.2 370.781 1002.79 400.933Z" fill-rule="evenodd" clip-rule="evenodd"/></clipPath><clipPath id="clip5"><path d="M975.713 450.365 920.128 420.213 947.2 370.781 1002.79 400.933Z" fill-rule="evenodd" clip-rule="evenodd"/></clipPath><clipPath id="clip6"><path d="M863.53 415.377 917.644 382.682 947 430.806 892.886 463.5Z" fill-rule="evenodd" clip-rule="evenodd"/></clipPath><clipPath id="clip7"><path d="M863.53 415.377 917.644 382.682 947 430.806 892.886 463.5Z" fill-rule="evenodd" clip-rule="evenodd"/></clipPath><clipPath id="clip8"><path d="M863.53 415.377 917.644 382.682 947 430.806 892.886 463.5Z" fill-rule="evenodd" clip-rule="evenodd"/></clipPath></defs><g transform="translate(-863 -333)"><path d="M13.0675 7.37546C5.50573 12.0169 2.05849 15.967 2.12672 19.3367 2.21242 23.5686 2.67965 23.4427 3.61546 25.1716 4.50866 24.2207 5.48697 23.2698 6.55031 22.2325 9.22997 19.6825 12.3775 17.0892 15.0147 15.1874 15.1849 15.0578 15.3549 14.9714 15.5676 14.9714 16.0355 14.9714 16.4183 15.3604 16.4183 15.8359 16.4183 16.1384 16.2907 16.3544 16.078 16.5274L16.078 16.5274C12.2925 19.2935 7.27342 23.5724 3.87066 27.4623 3.87066 27.4623 3.40276 27.9809 3.19011 28.2403L3.19011 28.2403C1.27603 30.531 0 32.6056 0 34.0751L2.55207 34.0751C2.55207 33.1243 4.0408 31.0497 6.2951 28.586 8.3793 30.4013 11.059 31.4819 14.0364 31.4819 16.1631 31.4819 18.2048 30.92 19.9487 29.8827L19.9487 29.8827C29.0511 24.7394 34.0751 10.6324 34.0751 0 34.0751 0 22.9189 3.46945 13.0675 7.37546Z" fill="#468189" fill-rule="evenodd" transform="matrix(-1.00481 0 0 1 942.891 379.948)"/><g clip-path="url(#clip0)"><g clip-path="url(#clip1)"><g clip-path="url(#clip2)"><path d="M45.1635 48.0961C45.1635 48.0961 31.0865 43.6971 31.0865 18.7692L39.2981 18.7692 25.2211 4.6923C25.2211 4.51635 11.1442 18.7692 11.1442 18.7692L18.7692 18.7692C18.7692 18.8279 20.9394 42.5827 45.1635 48.0961Z" fill="#2C3E50" transform="matrix(-0.194188 0.980964 -1.10308 -0.216275 957.219 345.232)"/></g></g></g><g clip-path="url(#clip3)"><g clip-path="url(#clip4)"><g clip-path="url(#clip5)"><path d="M45.2048 48.1402C45.2048 48.1402 31.115 43.7371 31.115 18.7864L39.334 18.7864 25.2442 4.69661C25.2442 4.52048 11.1544 18.7864 11.1544 18.7864L18.7864 18.7864C18.7864 18.8451 20.9586 42.6217 45.2048 48.1402Z" fill="#2C3E50" transform="matrix(-0.986264 -0.53499 0.480356 -0.877083 975.713 450.365)"/></g></g></g><g clip-path="url(#clip6)"><g clip-path="url(#clip7)"><g clip-path="url(#clip8)"><path d="M45.2136 48.1495C45.2136 48.1495 31.121 43.7455 31.121 18.7901L39.3417 18.7901 25.2491 4.69751C25.2491 4.52136 11.1566 18.7901 11.1566 18.7901L18.7901 18.7901C18.7901 18.8487 20.9626 42.6299 45.2136 48.1495Z" fill="#2C3E50" transform="matrix(0.95998 -0.580002 0.520771 0.853707 863.53 415.377)"/></g></g></g></g></svg>