<svg width="117" height="110" xmlns="http://www.w3.org/2000/svg" xmlns:xlink="http://www.w3.org/1999/xlink" xml:space="preserve" overflow="hidden"><defs><clipPath id="clip0"><rect x="332" y="329" width="117" height="110"/></clipPath></defs><g clip-path="url(#clip0)" transform="translate(-332 -329)"><path d="M136.54 65.4239C145.602 66.0665 155.652 72.4916 163.082 74.1621 170.511 75.8326 173.561 76.6894 181.119 75.4472 188.678 74.2049 199.887 67.3516 208.434 66.7089 215.912 66.1467 223.924 69.6922 229.947 71.1254L230.594 71.2487 230.594 84.8276C230.594 87.0278 228.807 88.8115 226.6 88.8115L117.601 88.8115C115.395 88.8115 113.607 87.0278 113.607 84.8276L113.607 69.2743 116.882 68.4421C122.982 66.8965 130.877 65.0224 136.54 65.4239Z" fill="#D9D9D9" fill-rule="evenodd" transform="matrix(1.00011 0 0 1 218.382 350.189)"/><path d="M160.501 49.3792C161.815 49.4222 163.189 49.5642 164.628 49.8539 170.383 51.0125 179.53 55.5182 184.727 57.3204 189.924 59.1225 190.868 59.8522 195.807 60.6675 200.746 61.4828 209.464 62.0835 214.36 62.2122 219.256 62.3409 221.146 62.2122 225.183 61.4397 226.192 61.2468 227.242 61.0054 228.322 60.7277L230.594 60.0916 230.594 76.8012 229.947 76.6774C223.924 75.2418 215.912 71.69 208.434 72.2533 199.887 72.8969 188.678 79.7626 181.119 81.0071 173.561 82.2514 170.511 81.3932 163.082 79.7198 155.652 78.0461 145.602 71.6096 136.54 70.966 130.877 70.5636 122.982 72.4411 116.882 73.9894L113.607 74.8232 113.607 57.9317 115.217 57.7547C120.306 57.1917 125.675 56.5695 128.81 56.0331 135.08 54.9603 137.356 53.63 140.921 52.6859 144.486 51.7419 146.246 50.8407 150.198 50.3687 153.161 50.0148 156.559 49.2505 160.501 49.3792Z" fill="#7C7C7C" fill-rule="evenodd" transform="matrix(1.00011 0 0 1 218.382 350.189)"/><path d="M193.836 38.9991C196.239 38.9776 198.62 39.066 200.961 39.3126 210.323 40.2988 222.52 45.3581 228.275 46.7732L230.207 47.2315 230.594 47.3147 230.594 65.2352 228.322 65.8708C227.242 66.1481 226.192 66.3893 225.183 66.5822 221.146 67.354 219.256 67.4827 214.36 67.354 209.464 67.2256 200.746 66.6253 195.807 65.8104 190.868 64.9958 189.924 64.2671 184.727 62.466 179.53 60.6652 170.383 56.1631 164.628 55.0056 158.873 53.8479 154.149 55.0485 150.198 55.52 146.246 55.9918 144.486 56.8921 140.921 57.8354 137.356 58.7788 135.08 60.108 128.81 61.1798 125.675 61.7159 120.306 62.3375 115.217 62.9002L113.607 63.0769 113.607 39.4936 113.942 39.5358C117.348 40.3202 117.944 43.241 127.006 44.4578 132.802 45.2359 136.197 45.8727 144.013 45.2296 151.83 44.5863 162.609 41.8422 172.1 40.8562 179.219 40.1164 186.627 39.0633 193.836 38.9991Z" fill="#468189" fill-rule="evenodd" transform="matrix(1.00011 0 0 1 218.382 350.189)"/><path d="M117.601 32.6844 226.6 32.6844C228.807 32.6844 230.594 34.4755 230.594 36.6848L230.594 53.873 230.207 53.7896C229.636 53.6595 228.994 53.5073 228.275 53.3297 222.52 51.9105 210.323 46.8352 200.961 45.8459 191.598 44.8566 181.592 46.4051 172.1 47.3942 162.609 48.3835 151.83 51.1362 144.013 51.7814 136.197 52.4265 131.043 51.5663 125.202 51.2654 121.552 51.0772 117.348 46.8566 113.942 46.0699L113.607 46.0276 113.607 36.6848C113.607 34.4755 115.395 32.6844 117.601 32.6844Z" fill="#2C3E50" fill-rule="evenodd" transform="matrix(1.00011 0 0 1 218.382 350.189)"/><path d="M160.041 77.9918 152.377 85.6557 144.713 77.9918 148.545 77.9918 148.545 32.6844 156.209 32.6844 156.209 77.9918Z" fill="#468189" fill-rule="evenodd" transform="matrix(1.00011 0 0 1 218.382 350.189)"/><path d="M162.218 77.0902 152.377 86.9309 142.536 77.0902 148.545 77.0902 147.643 77.9918 147.643 31.7828 157.111 31.7828 157.111 77.9918 156.209 77.0902ZM155.307 78.8934 155.307 32.6844 156.209 33.5861 148.545 33.5861 149.447 32.6844 149.447 78.8934 144.713 78.8934 145.351 77.3543 153.015 85.0183 151.74 85.0183 159.404 77.3543 160.041 78.8934Z" fill="#FFFFFF" transform="matrix(1.00011 0 0 1 218.382 350.189)"/><path d="M149.447 23.8934 155.307 23.8934 155.307 34.2623 149.447 34.2623Z" fill="#468189" transform="matrix(1.00011 0 0 1 218.382 350.189)"/><path d="M175.062 9.96571C174.867 9.96571 174.607 9.96571 174.412 9.96571 174.412 9.96571 174.412 9.96571 174.412 9.96571 174.412 6.77873 172.851 3.85192 170.314 2.0308 167.713 0.209679 164.396-0.245602 161.404 0.795039 158.932-4.01793 153.469-6.48946 148.266-5.2537 143.062-4.01793 139.29 0.664959 139.29 6.0633 139.29 6.0633 139.29 6.12833 139.29 6.19336 135.713 5.60802 132.136 7.10393 129.924 9.96571 127.778 12.8925 127.388 16.7299 128.884 19.9819 130.445 23.2339 133.697 25.3802 137.274 25.5752L137.274 25.6404 174.997 25.6404C179.29 25.6404 182.802 22.1282 182.802 17.8356 182.802 13.5429 179.355 9.96571 175.062 9.96571Z" fill="#D9D9D9" transform="matrix(1.00011 0 0 1 218.382 350.189)"/><text fill="#FFFFFF" font-family="Aharoni,Aharoni_MSFontService,sans-serif" font-weight="700" font-size="53" transform="matrix(0.225434 0 0 0.22541 361.386 367)">CO</text><text fill="#FFFFFF" font-family="Aharoni,Aharoni_MSFontService,sans-serif" font-weight="700" font-size="53" transform="matrix(0.225434 0 0 0.22541 378.331 367)">2</text></g></svg>